<svg xmlns="http://www.w3.org/2000/svg" xmlns:xlink="http://www.w3.org/1999/xlink" width="40" zoomAndPan="magnify" viewBox="0 0 30 30.000001" height="40" preserveAspectRatio="xMidYMid meet" version="1.0"><defs><clipPath id="42709087e6"><path d="M 0.484375 0 L 29.515625 0 L 29.515625 28.882812 L 0.484375 28.882812 Z M 0.484375 0 " clip-rule="nonzero"/></clipPath></defs><g clip-path="url(#42709087e6)"><path fill="#000000" d="M 30.097656 9.238281 C 30.191406 9.238281 30.242188 9.191406 30.242188 9.09375 C 30.242188 8.996094 30.191406 8.949219 30.097656 8.949219 L 25.332031 8.949219 L 25.332031 4.328125 L 30.097656 4.328125 C 30.191406 4.328125 30.242188 4.28125 30.242188 4.183594 C 30.242188 4.085938 30.191406 4.035156 30.097656 4.035156 L 25.332031 4.035156 L 25.332031 -0.726562 C 25.332031 -0.824219 25.28125 -0.875 25.183594 -0.875 C 25.089844 -0.875 25.039062 -0.824219 25.039062 -0.726562 L 25.039062 4.035156 L 20.417969 4.035156 L 20.417969 -0.726562 C 20.417969 -0.824219 20.371094 -0.875 20.273438 -0.875 C 20.175781 -0.875 20.128906 -0.824219 20.128906 -0.726562 L 20.128906 4.035156 L 15.507812 4.035156 L 15.507812 -0.726562 C 15.507812 -0.824219 15.460938 -0.875 15.363281 -0.875 C 15.265625 -0.875 15.21875 -0.824219 15.21875 -0.726562 L 15.21875 4.035156 L 10.597656 4.035156 L 10.597656 -0.726562 C 10.597656 -0.824219 10.550781 -0.875 10.453125 -0.875 C 10.355469 -0.875 10.304688 -0.824219 10.304688 -0.726562 L 10.304688 4.035156 L 5.6875 4.035156 L 5.6875 -0.726562 C 5.6875 -0.824219 5.636719 -0.875 5.539062 -0.875 C 5.441406 -0.875 5.394531 -0.824219 5.394531 -0.726562 L 5.394531 4.035156 L 0.628906 4.035156 C 0.53125 4.035156 0.484375 4.085938 0.484375 4.183594 C 0.484375 4.28125 0.53125 4.328125 0.628906 4.328125 L 5.394531 4.328125 L 5.394531 8.949219 L 0.628906 8.949219 C 0.53125 8.949219 0.484375 8.996094 0.484375 9.09375 C 0.484375 9.191406 0.53125 9.238281 0.628906 9.238281 L 5.394531 9.238281 L 5.394531 13.859375 L 0.628906 13.859375 C 0.53125 13.859375 0.484375 13.90625 0.484375 14.003906 C 0.484375 14.101562 0.53125 14.152344 0.628906 14.152344 L 5.394531 14.152344 L 5.394531 18.769531 L 0.628906 18.769531 C 0.53125 18.769531 0.484375 18.816406 0.484375 18.914062 C 0.484375 19.011719 0.53125 19.0625 0.628906 19.0625 L 5.394531 19.0625 L 5.394531 23.679688 L 0.628906 23.679688 C 0.53125 23.679688 0.484375 23.730469 0.484375 23.828125 C 0.484375 23.925781 0.53125 23.972656 0.628906 23.972656 L 5.394531 23.972656 L 5.394531 28.738281 C 5.394531 28.835938 5.441406 28.882812 5.539062 28.882812 C 5.636719 28.882812 5.6875 28.835938 5.6875 28.738281 L 5.6875 23.972656 L 10.304688 23.972656 L 10.304688 28.738281 C 10.304688 28.835938 10.355469 28.882812 10.453125 28.882812 C 10.550781 28.882812 10.597656 28.835938 10.597656 28.738281 L 10.597656 23.972656 L 15.21875 23.972656 L 15.21875 28.738281 C 15.21875 28.835938 15.265625 28.882812 15.363281 28.882812 C 15.460938 28.882812 15.507812 28.835938 15.507812 28.738281 L 15.507812 23.972656 L 20.128906 23.972656 L 20.128906 28.738281 C 20.128906 28.835938 20.175781 28.882812 20.273438 28.882812 C 20.371094 28.882812 20.417969 28.835938 20.417969 28.738281 L 20.417969 23.972656 L 25.039062 23.972656 L 25.039062 28.738281 C 25.039062 28.835938 25.089844 28.882812 25.183594 28.882812 C 25.28125 28.882812 25.332031 28.835938 25.332031 28.738281 L 25.332031 23.972656 L 30.097656 23.972656 C 30.191406 23.972656 30.242188 23.925781 30.242188 23.828125 C 30.242188 23.730469 30.191406 23.679688 30.097656 23.679688 L 25.332031 23.679688 L 25.332031 19.0625 L 30.097656 19.0625 C 30.191406 19.0625 30.242188 19.011719 30.242188 18.914062 C 30.242188 18.816406 30.191406 18.769531 30.097656 18.769531 L 25.332031 18.769531 L 25.332031 14.152344 L 30.097656 14.152344 C 30.191406 14.152344 30.242188 14.101562 30.242188 14.003906 C 30.242188 13.90625 30.191406 13.859375 30.097656 13.859375 L 25.332031 13.859375 L 25.332031 9.238281 Z M 25.039062 4.328125 L 25.039062 8.949219 L 20.417969 8.949219 L 20.417969 4.328125 Z M 20.128906 4.328125 L 20.128906 8.949219 L 15.507812 8.949219 L 15.507812 4.328125 Z M 15.21875 14.152344 L 15.21875 18.769531 L 10.597656 18.769531 L 10.597656 14.152344 Z M 10.597656 13.859375 L 10.597656 9.238281 L 15.21875 9.238281 L 15.21875 13.859375 Z M 15.507812 14.152344 L 20.128906 14.152344 L 20.128906 18.769531 L 15.507812 18.769531 Z M 15.507812 13.859375 L 15.507812 9.238281 L 20.128906 9.238281 L 20.128906 13.859375 Z M 15.21875 4.328125 L 15.21875 8.949219 L 10.597656 8.949219 L 10.597656 4.328125 Z M 5.6875 4.328125 L 10.304688 4.328125 L 10.304688 8.949219 L 5.6875 8.949219 Z M 5.6875 9.238281 L 10.304688 9.238281 L 10.304688 13.859375 L 5.6875 13.859375 Z M 5.6875 14.152344 L 10.304688 14.152344 L 10.304688 18.769531 L 5.6875 18.769531 Z M 5.6875 23.679688 L 5.6875 19.0625 L 10.304688 19.0625 L 10.304688 23.679688 Z M 10.597656 23.679688 L 10.597656 19.0625 L 15.21875 19.0625 L 15.21875 23.679688 Z M 15.507812 23.679688 L 15.507812 19.0625 L 20.128906 19.0625 L 20.128906 23.679688 Z M 25.039062 23.679688 L 20.417969 23.679688 L 20.417969 19.0625 L 25.039062 19.0625 Z M 25.039062 18.769531 L 20.417969 18.769531 L 20.417969 14.152344 L 25.039062 14.152344 Z M 25.039062 13.859375 L 20.417969 13.859375 L 20.417969 9.238281 L 25.039062 9.238281 Z M 25.039062 13.859375 " fill-opacity="1" fill-rule="nonzero"/></g></svg>